<svg width="17" height="16" viewBox="0 0 17 16" fill="none" xmlns="http://www.w3.org/2000/svg">
<path d="M7.03033 3.46967C6.73744 3.17678 6.26256 3.17678 5.96967 3.46967C5.67678 3.76256 5.67678 4.23744 5.96967 4.53033L7.03033 3.46967ZM10.5 8L11.0303 8.53033C11.3232 8.23744 11.3232 7.76256 11.0303 7.46967L10.5 8ZM5.96967 11.4697C5.67678 11.7626 5.67678 12.2374 5.96967 12.5303C6.26256 12.8232 6.73744 12.8232 7.03033 12.5303L5.96967 11.4697ZM5.96967 4.53033L9.96967 8.53033L11.0303 7.46967L7.03033 3.46967L5.96967 4.53033ZM9.96967 7.46967L5.96967 11.4697L7.03033 12.5303L11.0303 8.53033L9.96967 7.46967Z" fill="#FF9408"/>
</svg>
