<svg width="134" height="32" viewBox="0 0 134 32" fill="none" xmlns="http://www.w3.org/2000/svg">
<path d="M33.9831 29.8491C31.5448 27.8391 29.668 25.2562 28.8209 23.3048C30.5988 20.0839 31.1398 16.3143 30.3405 12.7161C29.5412 9.11782 27.4577 5.94306 24.4878 3.79818C21.5179 1.65331 17.8698 0.688646 14.2404 1.08845C10.611 1.48825 7.25454 3.22449 4.81218 5.96555C2.36983 8.70661 1.01273 12.2604 1.00009 15.9481C0.987451 19.6358 2.32016 23.1989 4.74367 25.957C7.16718 28.7151 10.5116 30.4748 14.1382 30.8999C17.7648 31.3251 21.4194 30.386 24.4039 28.2619C29.1051 30.0391 34.3353 30.1433 33.9831 29.8491Z" fill="white" stroke="#383838" stroke-width="0.678055" stroke-miterlimit="10"/>
<path d="M8.66699 10.7583C12.1367 7.91939 17.5052 8.86568 18.1314 13.9141C18.5703 17.4189 15.2926 27.4761 23.2164 24.9938" stroke="#6606EF" stroke-width="1.01708" stroke-miterlimit="10"/>
<path d="M9.53722 11.824C9.32706 11.9949 9.07097 12.0998 8.80127 12.1254C8.53156 12.151 8.26031 12.0961 8.02175 11.9677C7.78319 11.8393 7.58801 11.6432 7.46082 11.404C7.33363 11.1647 7.28014 10.8932 7.3071 10.6236C7.33406 10.3541 7.44025 10.0985 7.61229 9.88923C7.78433 9.67995 8.0145 9.5263 8.27376 9.44769C8.53302 9.36907 8.80976 9.369 9.06906 9.44749C9.32836 9.52598 9.5586 9.67951 9.73074 9.88871C9.84559 10.0283 9.93171 10.1892 9.98416 10.3621C10.0366 10.5351 10.0544 10.7167 10.0364 10.8966C10.0184 11.0764 9.96502 11.2509 9.87936 11.4101C9.7937 11.5692 9.67742 11.7099 9.53722 11.824Z" fill="#6606EF"/>
<path d="M23.629 26.3059C23.8873 26.2242 24.1156 26.0678 24.2851 25.8564C24.4546 25.645 24.5577 25.3882 24.5814 25.1183C24.6051 24.8484 24.5483 24.5775 24.4182 24.3398C24.2881 24.1022 24.0905 23.9084 23.8503 23.7829C23.6102 23.6574 23.3383 23.6059 23.0689 23.6348C22.7995 23.6637 22.5447 23.7717 22.3367 23.9453C22.1286 24.1189 21.9766 24.3502 21.8999 24.61C21.8232 24.8699 21.8251 25.1466 21.9055 25.4053C21.9591 25.5779 22.0463 25.7382 22.1621 25.8769C22.2778 26.0157 22.4199 26.1302 22.58 26.2139C22.7402 26.2976 22.9153 26.3488 23.0953 26.3646C23.2753 26.3804 23.4567 26.3604 23.629 26.3059Z" fill="#6606EF"/>
<path d="M21.6029 7.72238C22.1583 7.72238 22.6086 7.2721 22.6086 6.71666C22.6086 6.16121 22.1583 5.71094 21.6029 5.71094C21.0474 5.71094 20.5972 6.16121 20.5972 6.71666C20.5972 7.2721 21.0474 7.72238 21.6029 7.72238Z" stroke="#6606EF" stroke-width="1.01708" stroke-miterlimit="10"/>
<path d="M15.0565 13.6762C9.45497 12.256 5.32084 17.5436 8.03629 22.4305C11.1906 28.1098 20.0257 27.1635 25.7126 15.4895" stroke="#FF9408" stroke-width="1.01708" stroke-miterlimit="10"/>
<path d="M15.3933 12.345C15.6552 12.4132 15.8911 12.5574 16.0712 12.7594C16.2514 12.9614 16.3677 13.2122 16.4056 13.4802C16.4435 13.7482 16.4013 14.0214 16.2842 14.2654C16.1672 14.5094 15.9805 14.7134 15.7478 14.8515C15.515 14.9897 15.2466 15.0559 14.9764 15.0418C14.7061 15.0277 14.446 14.934 14.2289 14.7724C14.0118 14.6108 13.8473 14.3886 13.7562 14.1337C13.6652 13.8788 13.6515 13.6027 13.7171 13.3401C13.761 13.1642 13.8393 12.9988 13.9476 12.8534C14.0558 12.708 14.1918 12.5855 14.3476 12.4929C14.5035 12.4004 14.6762 12.3397 14.8557 12.3143C15.0351 12.2889 15.2179 12.2994 15.3933 12.345Z" fill="#FF9408"/>
<path d="M26.9403 16.0922C27.0584 15.8483 27.1016 15.5749 27.0644 15.3064C27.0272 15.038 26.9114 14.7866 26.7315 14.584C26.5516 14.3814 26.3157 14.2365 26.0536 14.1678C25.7915 14.0992 25.5149 14.1096 25.2587 14.198C25.0025 14.2864 24.7783 14.4486 24.6143 14.6643C24.4502 14.88 24.3538 15.1395 24.3371 15.4099C24.3204 15.6804 24.3842 15.9497 24.5204 16.184C24.6566 16.4182 24.8592 16.6068 25.1025 16.7261C25.2648 16.8055 25.4411 16.8522 25.6214 16.8633C25.8016 16.8745 25.9824 16.8499 26.1531 16.791C26.3239 16.7321 26.4813 16.64 26.6164 16.5201C26.7515 16.4002 26.8615 16.2547 26.9403 16.0922Z" fill="#FF9408"/>
<path d="M21.918 11.7031C21.918 15.2414 20.6563 20.2228 25.8525 20.8186" stroke="#0EDDC9" stroke-width="1.01708" stroke-miterlimit="10"/>
<path d="M21.9179 13.0791C22.6771 13.0791 23.2924 12.4637 23.2924 11.7046C23.2924 10.9455 22.6771 10.3301 21.9179 10.3301C21.1588 10.3301 20.5435 10.9455 20.5435 11.7046C20.5435 12.4637 21.1588 13.0791 21.9179 13.0791Z" fill="#0EDDC9"/>
<path d="M25.6969 22.1836C25.9661 22.2137 26.2382 22.1633 26.4788 22.0389C26.7194 21.9145 26.9178 21.7217 27.049 21.4847C27.1801 21.2477 27.2381 20.9771 27.2157 20.7072C27.1933 20.4373 27.0915 20.18 26.923 19.9679C26.7546 19.7557 26.5271 19.5982 26.2693 19.5152C26.0114 19.4322 25.7348 19.4274 25.4742 19.5014C25.2137 19.5754 24.9809 19.7249 24.8052 19.9311C24.6295 20.1373 24.5188 20.3908 24.487 20.6598C24.4658 20.8394 24.4803 21.0214 24.5297 21.1954C24.5791 21.3694 24.6625 21.5318 24.7749 21.6735C24.8874 21.8151 25.0267 21.9331 25.185 22.0206C25.3432 22.1082 25.5172 22.1636 25.6969 22.1836Z" fill="#0EDDC9"/>
<path d="M60.8867 24.11C60.7694 24.11 60.6667 24.0587 60.5787 23.956L53.9347 15.728L54.6387 15.024L61.2827 23.34C61.356 23.4427 61.3927 23.5453 61.3927 23.648C61.3927 23.824 61.3267 23.9413 61.1947 24C61.0774 24.0733 60.9747 24.11 60.8867 24.11ZM60.4907 8.688C60.608 8.688 60.7107 8.732 60.7987 8.82C60.8867 8.908 60.9307 9.01067 60.9307 9.128C60.9307 9.24533 60.8867 9.348 60.7987 9.436L50.5467 18.984L50.3487 18.038L60.1827 8.82C60.2707 8.732 60.3734 8.688 60.4907 8.688ZM50.2167 24C50.07 24 49.9527 23.956 49.8647 23.868C49.7914 23.78 49.7547 23.67 49.7547 23.538V9.062C49.7547 8.93 49.7987 8.82 49.8867 8.732C49.9747 8.644 50.0847 8.6 50.2167 8.6C50.3487 8.6 50.4587 8.644 50.5467 8.732C50.6347 8.82 50.6787 8.93 50.6787 9.062V23.538C50.664 23.67 50.6127 23.78 50.5247 23.868C50.4367 23.956 50.334 24 50.2167 24ZM74.0681 18.456C74.0681 19.5413 73.8335 20.524 73.3641 21.404C72.8948 22.2693 72.2495 22.9587 71.4281 23.472C70.6215 23.9707 69.6975 24.22 68.6561 24.22C67.6295 24.22 66.7055 23.9707 65.8841 23.472C65.0628 22.9587 64.4101 22.2693 63.9261 21.404C63.4568 20.524 63.2221 19.5413 63.2221 18.456C63.2221 17.356 63.4568 16.3733 63.9261 15.508C64.4101 14.628 65.0628 13.9387 65.8841 13.44C66.7055 12.9267 67.6295 12.67 68.6561 12.67C69.6975 12.67 70.6215 12.9267 71.4281 13.44C72.2495 13.9387 72.8948 14.628 73.3641 15.508C73.8335 16.3733 74.0681 17.356 74.0681 18.456ZM73.1881 18.456C73.1881 17.5027 72.9901 16.6593 72.5941 15.926C72.2128 15.178 71.6775 14.5913 70.9881 14.166C70.3135 13.726 69.5361 13.506 68.6561 13.506C67.7908 13.506 67.0135 13.726 66.3241 14.166C65.6348 14.5913 65.0921 15.178 64.6961 15.926C64.3001 16.6593 64.1021 17.5027 64.1021 18.456C64.1021 19.3947 64.3001 20.238 64.6961 20.986C65.0921 21.7193 65.6348 22.306 66.3241 22.746C67.0135 23.1713 67.7908 23.384 68.6561 23.384C69.5361 23.384 70.3135 23.1713 70.9881 22.746C71.6775 22.306 72.2128 21.7193 72.5941 20.986C72.9901 20.238 73.1881 19.3947 73.1881 18.456ZM86.1171 13.022C86.2491 13.022 86.3517 13.066 86.4251 13.154C86.5131 13.242 86.5571 13.3447 86.5571 13.462V23.56C86.5571 23.6773 86.5131 23.78 86.4251 23.868C86.3371 23.956 86.2344 24 86.1171 24C85.9851 24 85.8751 23.956 85.7871 23.868C85.7137 23.78 85.6771 23.6773 85.6771 23.56V20.436L86.0291 20.15C86.0291 20.6193 85.9117 21.096 85.6771 21.58C85.4424 22.064 85.1197 22.504 84.7091 22.9C84.2984 23.296 83.8144 23.6187 83.2571 23.868C82.6997 24.1027 82.0984 24.22 81.4531 24.22C80.4704 24.22 79.5904 23.9633 78.8131 23.45C78.0504 22.9367 77.4491 22.24 77.0091 21.36C76.5691 20.48 76.3491 19.49 76.3491 18.39C76.3491 17.2753 76.5691 16.2927 77.0091 15.442C77.4637 14.5767 78.0724 13.902 78.8351 13.418C79.6124 12.9193 80.4851 12.67 81.4531 12.67C82.0837 12.67 82.6777 12.7873 83.2351 13.022C83.7924 13.242 84.2764 13.5573 84.6871 13.968C85.1124 14.3787 85.4424 14.8627 85.6771 15.42C85.9117 15.9627 86.0291 16.5567 86.0291 17.202L85.6771 16.652V13.462C85.6771 13.3447 85.7137 13.242 85.7871 13.154C85.8751 13.066 85.9851 13.022 86.1171 13.022ZM81.4971 23.384C82.3184 23.384 83.0517 23.1713 83.6971 22.746C84.3424 22.306 84.8484 21.712 85.2151 20.964C85.5817 20.2013 85.7651 19.3433 85.7651 18.39C85.7651 17.4807 85.5817 16.6593 85.2151 15.926C84.8484 15.178 84.3424 14.5913 83.6971 14.166C83.0517 13.726 82.3184 13.506 81.4971 13.506C80.6904 13.506 79.9644 13.7187 79.3191 14.144C78.6737 14.5547 78.1604 15.1267 77.7791 15.86C77.4124 16.5933 77.2291 17.4367 77.2291 18.39C77.2291 19.3433 77.4124 20.2013 77.7791 20.964C78.1457 21.712 78.6517 22.306 79.2971 22.746C79.9424 23.1713 80.6757 23.384 81.4971 23.384ZM95.063 12.67C95.723 12.67 96.339 12.7433 96.911 12.89C97.4977 13.0367 97.967 13.2347 98.319 13.484C98.6857 13.7187 98.869 13.968 98.869 14.232C98.869 14.3347 98.825 14.4373 98.737 14.54C98.6637 14.628 98.5683 14.672 98.451 14.672C98.2897 14.672 98.1577 14.628 98.055 14.54C97.967 14.452 97.8717 14.3493 97.769 14.232C97.6663 14.1 97.505 13.9827 97.285 13.88C97.0797 13.7773 96.7863 13.6893 96.405 13.616C96.0383 13.5427 95.5837 13.506 95.041 13.506C94.1903 13.506 93.413 13.726 92.709 14.166C92.005 14.606 91.4403 15.2 91.015 15.948C90.6043 16.6813 90.399 17.51 90.399 18.434C90.399 19.3727 90.5897 20.216 90.971 20.964C91.367 21.712 91.9097 22.306 92.599 22.746C93.303 23.1713 94.117 23.384 95.041 23.384C95.701 23.384 96.1997 23.3253 96.537 23.208C96.889 23.076 97.1897 22.9367 97.439 22.79C97.747 22.614 97.9597 22.4453 98.077 22.284C98.1943 22.1227 98.3337 22.042 98.495 22.042C98.6123 22.042 98.7003 22.0787 98.759 22.152C98.8323 22.2253 98.869 22.3207 98.869 22.438C98.869 22.614 98.7077 22.8487 98.385 23.142C98.0623 23.4207 97.6077 23.67 97.021 23.89C96.449 24.11 95.767 24.22 94.975 24.22C93.9043 24.22 92.9583 23.9707 92.137 23.472C91.3157 22.9587 90.6703 22.2693 90.201 21.404C89.7463 20.524 89.519 19.534 89.519 18.434C89.519 17.4073 89.7463 16.4613 90.201 15.596C90.6703 14.716 91.3157 14.012 92.137 13.484C92.973 12.9413 93.9483 12.67 95.063 12.67ZM106.362 12.89C107.242 12.89 107.968 13.0807 108.54 13.462C109.127 13.8433 109.56 14.3567 109.838 15.002C110.132 15.6473 110.278 16.3587 110.278 17.136V23.56C110.278 23.6773 110.234 23.78 110.146 23.868C110.058 23.956 109.956 24 109.838 24C109.706 24 109.596 23.956 109.508 23.868C109.435 23.78 109.398 23.6773 109.398 23.56V17.136C109.398 16.5053 109.296 15.9333 109.09 15.42C108.885 14.9067 108.562 14.496 108.122 14.188C107.682 13.88 107.096 13.726 106.362 13.726C105.732 13.726 105.116 13.88 104.514 14.188C103.913 14.496 103.414 14.9067 103.018 15.42C102.637 15.9333 102.446 16.5053 102.446 17.136V23.56C102.446 23.6773 102.402 23.78 102.314 23.868C102.226 23.956 102.124 24 102.006 24C101.874 24 101.764 23.956 101.676 23.868C101.603 23.78 101.566 23.6773 101.566 23.56V8.16C101.566 8.04267 101.61 7.94 101.698 7.852C101.786 7.764 101.889 7.72 102.006 7.72C102.138 7.72 102.241 7.764 102.314 7.852C102.402 7.94 102.446 8.04267 102.446 8.16V15.838L101.896 16.894C101.896 16.366 102.028 15.86 102.292 15.376C102.556 14.892 102.901 14.4667 103.326 14.1C103.766 13.7187 104.25 13.4253 104.778 13.22C105.306 13 105.834 12.89 106.362 12.89ZM113.788 24C113.597 24 113.45 23.934 113.348 23.802C113.245 23.67 113.194 23.5087 113.194 23.318V22.812C113.194 22.6067 113.245 22.4453 113.348 22.328C113.45 22.196 113.597 22.13 113.788 22.13H113.876C114.081 22.13 114.228 22.196 114.316 22.328C114.418 22.4453 114.47 22.6067 114.47 22.812V23.318C114.47 23.5087 114.418 23.67 114.316 23.802C114.228 23.934 114.081 24 113.876 24H113.788ZM126.486 13.022C126.618 13.022 126.721 13.066 126.794 13.154C126.882 13.242 126.926 13.3447 126.926 13.462V23.56C126.926 23.6773 126.882 23.78 126.794 23.868C126.706 23.956 126.604 24 126.486 24C126.354 24 126.244 23.956 126.156 23.868C126.083 23.78 126.046 23.6773 126.046 23.56V20.436L126.398 20.15C126.398 20.6193 126.281 21.096 126.046 21.58C125.812 22.064 125.489 22.504 125.078 22.9C124.668 23.296 124.184 23.6187 123.626 23.868C123.069 24.1027 122.468 24.22 121.822 24.22C120.84 24.22 119.96 23.9633 119.182 23.45C118.42 22.9367 117.818 22.24 117.378 21.36C116.938 20.48 116.718 19.49 116.718 18.39C116.718 17.2753 116.938 16.2927 117.378 15.442C117.833 14.5767 118.442 13.902 119.204 13.418C119.982 12.9193 120.854 12.67 121.822 12.67C122.453 12.67 123.047 12.7873 123.604 13.022C124.162 13.242 124.646 13.5573 125.056 13.968C125.482 14.3787 125.812 14.8627 126.046 15.42C126.281 15.9627 126.398 16.5567 126.398 17.202L126.046 16.652V13.462C126.046 13.3447 126.083 13.242 126.156 13.154C126.244 13.066 126.354 13.022 126.486 13.022ZM121.866 23.384C122.688 23.384 123.421 23.1713 124.066 22.746C124.712 22.306 125.218 21.712 125.584 20.964C125.951 20.2013 126.134 19.3433 126.134 18.39C126.134 17.4807 125.951 16.6593 125.584 15.926C125.218 15.178 124.712 14.5913 124.066 14.166C123.421 13.726 122.688 13.506 121.866 13.506C121.06 13.506 120.334 13.7187 119.688 14.144C119.043 14.5547 118.53 15.1267 118.148 15.86C117.782 16.5933 117.598 17.4367 117.598 18.39C117.598 19.3433 117.782 20.2013 118.148 20.964C118.515 21.712 119.021 22.306 119.666 22.746C120.312 23.1713 121.045 23.384 121.866 23.384ZM131.45 23.56C131.45 23.6773 131.406 23.78 131.318 23.868C131.23 23.956 131.127 24 131.01 24C130.878 24 130.768 23.956 130.68 23.868C130.607 23.78 130.57 23.6773 130.57 23.56V13.11C130.57 12.9927 130.614 12.89 130.702 12.802C130.79 12.714 130.893 12.67 131.01 12.67C131.142 12.67 131.245 12.714 131.318 12.802C131.406 12.89 131.45 12.9927 131.45 13.11V23.56ZM131.01 11.174C130.775 11.174 130.585 11.108 130.438 10.976C130.306 10.844 130.24 10.6753 130.24 10.47V10.294C130.24 10.0887 130.313 9.92 130.46 9.788C130.607 9.656 130.797 9.59 131.032 9.59C131.237 9.59 131.406 9.656 131.538 9.788C131.685 9.92 131.758 10.0887 131.758 10.294V10.47C131.758 10.6753 131.685 10.844 131.538 10.976C131.406 11.108 131.23 11.174 131.01 11.174Z" fill="#6606EF"/>
</svg>
