<svg width="24" height="24" viewBox="0 0 24 24" fill="none" xmlns="http://www.w3.org/2000/svg">
<path d="M3 19H21" stroke="#6606EF" stroke-width="1.5" stroke-linecap="round" stroke-linejoin="round"/>
<path d="M8 10H11" stroke="#6606EF" stroke-width="1.5" stroke-linecap="round" stroke-linejoin="round"/>
<path d="M19 19V19.75C19.4142 19.75 19.75 19.4142 19.75 19H19ZM14 19H13.25C13.25 19.4142 13.5858 19.75 14 19.75V19ZM14.8333 9.75H18.1667V8.25H14.8333V9.75ZM18.25 9.90909V19H19.75V9.90909H18.25ZM19 18.25H14V19.75H19V18.25ZM14.75 19V9.90909H13.25V19H14.75ZM18.1667 9.75C18.1674 9.75 18.1808 9.74883 18.2031 9.77306C18.2263 9.79838 18.25 9.84451 18.25 9.90909H19.75C19.75 9.05556 19.1012 8.25 18.1667 8.25V9.75ZM14.8333 8.25C13.8988 8.25 13.25 9.05556 13.25 9.90909H14.75C14.75 9.84451 14.7737 9.79838 14.7969 9.77306C14.8192 9.74883 14.8326 9.75 14.8333 9.75V8.25Z" fill="#6606EF"/>
<path d="M8 7H11" stroke="#6606EF" stroke-width="1.5" stroke-linecap="round" stroke-linejoin="round"/>
<path d="M14 19V19.75C14.4142 19.75 14.75 19.4142 14.75 19H14ZM5 19H4.25C4.25 19.4142 4.58579 19.75 5 19.75V19ZM5.9 4.75H13.1V3.25H5.9V4.75ZM13.25 4.88235V19H14.75V4.88235H13.25ZM14 18.25H5V19.75H14V18.25ZM5.75 19V4.88235H4.25V19H5.75ZM13.1 4.75C13.1969 4.75 13.25 4.82319 13.25 4.88235H14.75C14.75 3.9669 13.9972 3.25 13.1 3.25V4.75ZM5.9 3.25C5.0028 3.25 4.25 3.9669 4.25 4.88235H5.75C5.75 4.82319 5.80309 4.75 5.9 4.75V3.25Z" fill="#6606EF"/>
</svg>
