<svg width="14" height="28" viewBox="0 0 14 28" fill="none" xmlns="http://www.w3.org/2000/svg">
<path d="M12.7197 27.0303C13.0126 27.3232 13.4874 27.3232 13.7803 27.0303C14.0732 26.7374 14.0732 26.2626 13.7803 25.9697L12.7197 27.0303ZM0.749999 14L0.219669 13.4697C-0.0732242 13.7626 -0.0732242 14.2374 0.219669 14.5303L0.749999 14ZM13.7803 2.03033C14.0732 1.73744 14.0732 1.26256 13.7803 0.969669C13.4874 0.676777 13.0126 0.676777 12.7197 0.969669L13.7803 2.03033ZM13.7803 25.9697L1.28033 13.4697L0.219669 14.5303L12.7197 27.0303L13.7803 25.9697ZM1.28033 14.5303L13.7803 2.03033L12.7197 0.969669L0.219669 13.4697L1.28033 14.5303Z" fill="#6606EF"/>
</svg>
