<svg width="24" height="24" viewBox="0 0 24 24" fill="none" xmlns="http://www.w3.org/2000/svg">
<path d="M9.78034 5.11753L9.08399 5.39607V5.39607L9.78034 5.11753ZM10.7175 7.46034L11.4138 7.18179L10.7175 7.46034ZM10.4326 9.25869L11.0087 9.73883L10.4326 9.25869ZM9.92822 9.86391L10.5044 10.344L9.92822 9.86391ZM10.0369 12.2591L9.50654 12.7894V12.7894L10.0369 12.2591ZM11.7409 13.9631L12.2712 13.4328L11.7409 13.9631ZM14.1361 14.0718L13.656 13.4956L14.1361 14.0718ZM14.7413 13.5674L15.2214 14.1436L15.2214 14.1436L14.7413 13.5674ZM16.5397 13.2825L16.2611 13.9789L16.5397 13.2825ZM18.8825 14.2197L19.161 13.5233L18.8825 14.2197ZM5.68421 4.75H8.12972V3.25H5.68421V4.75ZM9.08399 5.39607L10.0211 7.73888L11.4138 7.18179L10.4767 4.83898L9.08399 5.39607ZM9.8564 8.77856L9.35206 9.38377L10.5044 10.344L11.0087 9.73883L9.8564 8.77856ZM9.50654 12.7894L11.2106 14.4935L12.2712 13.4328L10.5672 11.7288L9.50654 12.7894ZM14.6162 14.6479L15.2214 14.1436L14.2612 12.9913L13.656 13.4956L14.6162 14.6479ZM16.2611 13.9789L18.6039 14.916L19.161 13.5233L16.8182 12.5862L16.2611 13.9789ZM19.25 15.8703V18.3158H20.75V15.8703H19.25ZM18.3158 19.25C10.8236 19.25 4.75 13.1764 4.75 5.68421H3.25C3.25 14.0048 9.99518 20.75 18.3158 20.75V19.25ZM19.25 18.3158C19.25 18.8317 18.8317 19.25 18.3158 19.25V20.75C19.6602 20.75 20.75 19.6602 20.75 18.3158H19.25ZM18.6039 14.916C18.9941 15.0721 19.25 15.45 19.25 15.8703H20.75C20.75 14.8367 20.1207 13.9072 19.161 13.5233L18.6039 14.916ZM15.2214 14.1436C15.5115 13.9019 15.9106 13.8387 16.2611 13.9789L16.8182 12.5862C15.9561 12.2414 14.9744 12.3969 14.2612 12.9913L15.2214 14.1436ZM11.2106 14.4935C12.135 15.4179 13.6119 15.4849 14.6162 14.6479L13.656 13.4956C13.2476 13.8359 12.6471 13.8087 12.2712 13.4328L11.2106 14.4935ZM9.35206 9.38377C8.5151 10.3881 8.58209 11.865 9.50654 12.7894L10.5672 11.7288C10.1913 11.3529 10.1641 10.7524 10.5044 10.344L9.35206 9.38377ZM10.0211 7.73888C10.1613 8.08939 10.0981 8.48855 9.8564 8.77856L11.0087 9.73883C11.6031 9.02557 11.7586 8.04385 11.4138 7.18179L10.0211 7.73888ZM8.12972 4.75C8.54998 4.75 8.92791 5.00587 9.08399 5.39607L10.4767 4.83898C10.0928 3.87929 9.16334 3.25 8.12972 3.25V4.75ZM5.68421 3.25C4.33983 3.25 3.25 4.33983 3.25 5.68421H4.75C4.75 5.16826 5.16826 4.75 5.68421 4.75V3.25Z" fill="#6606EF"/>
</svg>
