<svg width="14" height="28" viewBox="0 0 14 28" fill="none" xmlns="http://www.w3.org/2000/svg">
<path d="M1.28033 0.96967C0.987437 0.676777 0.512563 0.676777 0.21967 0.96967C-0.0732233 1.26256 -0.0732233 1.73744 0.21967 2.03033L1.28033 0.96967ZM13.25 14L13.7803 14.5303C14.0732 14.2374 14.0732 13.7626 13.7803 13.4697L13.25 14ZM0.21967 25.9697C-0.0732233 26.2626 -0.0732233 26.7374 0.21967 27.0303C0.512563 27.3232 0.987437 27.3232 1.28033 27.0303L0.21967 25.9697ZM0.21967 2.03033L12.7197 14.5303L13.7803 13.4697L1.28033 0.96967L0.21967 2.03033ZM12.7197 13.4697L0.21967 25.9697L1.28033 27.0303L13.7803 14.5303L12.7197 13.4697Z" fill="#6606EF"/>
</svg>
