<svg width="140" height="16" viewBox="0 0 140 16" fill="none" xmlns="http://www.w3.org/2000/svg">
<path d="M2.48049 13C2.30316 13 2.14916 12.944 2.01849 12.832C1.89716 12.72 1.83649 12.5847 1.83649 12.426V3.76C1.83649 3.60133 1.88783 3.47067 1.99049 3.368C2.10249 3.256 2.23783 3.2 2.39649 3.2H6.26049C6.78316 3.2 7.25449 3.32133 7.67449 3.564C8.09449 3.79733 8.42583 4.124 8.66849 4.544C8.92049 4.95467 9.04649 5.43067 9.04649 5.972C9.04649 6.364 8.97183 6.73267 8.82249 7.078C8.67316 7.414 8.46783 7.708 8.20649 7.96C7.94516 8.20267 7.64649 8.38933 7.31049 8.52L7.00249 8.296C7.31983 8.37067 7.60449 8.506 7.85649 8.702C8.10849 8.88867 8.31383 9.13133 8.47249 9.43C8.63116 9.71933 8.71516 10.06 8.72449 10.452C8.74316 10.7973 8.76649 11.0727 8.79449 11.278C8.82249 11.4833 8.86449 11.6467 8.92049 11.768C8.97649 11.88 9.05583 11.9687 9.15849 12.034C9.28916 12.118 9.37316 12.23 9.41049 12.37C9.45716 12.51 9.43383 12.6453 9.34049 12.776C9.28449 12.86 9.20516 12.9207 9.10249 12.958C8.99983 12.986 8.89716 12.9953 8.79449 12.986C8.69183 12.9767 8.60316 12.9487 8.52849 12.902C8.37916 12.818 8.23449 12.6967 8.09449 12.538C7.95449 12.37 7.83783 12.132 7.74449 11.824C7.65116 11.516 7.60449 11.096 7.60449 10.564C7.60449 10.2653 7.55783 10.018 7.46449 9.822C7.37116 9.626 7.24516 9.46733 7.08649 9.346C6.92783 9.22467 6.75049 9.14067 6.55449 9.094C6.35849 9.04733 6.15783 9.024 5.95249 9.024H2.83049L2.99849 8.772V12.426C2.99849 12.5847 2.95183 12.72 2.85849 12.832C2.76516 12.944 2.63916 13 2.48049 13ZM2.83049 8.016H6.26049C6.53116 7.99733 6.78316 7.904 7.01649 7.736C7.25916 7.568 7.45516 7.33467 7.60449 7.036C7.76316 6.728 7.84249 6.38267 7.84249 6C7.84249 5.50533 7.68383 5.09467 7.36649 4.768C7.05849 4.44133 6.66649 4.278 6.19049 4.278H2.88649L2.99849 4.012V8.268L2.83049 8.016ZM14.3791 13.14C13.6324 13.14 12.9791 12.9813 12.4191 12.664C11.8591 12.3467 11.4204 11.9127 11.1031 11.362C10.7951 10.802 10.6411 10.158 10.6411 9.43C10.6411 8.618 10.7997 7.92733 11.1171 7.358C11.4437 6.77933 11.8637 6.34067 12.3771 6.042C12.8997 5.734 13.4504 5.58 14.0291 5.58C14.4584 5.58 14.8737 5.65933 15.2751 5.818C15.6764 5.97667 16.0311 6.21 16.3391 6.518C16.6471 6.81667 16.8944 7.18067 17.0811 7.61C17.2677 8.03 17.3657 8.50133 17.3751 9.024C17.3751 9.17333 17.3191 9.29933 17.2071 9.402C17.0951 9.50467 16.9644 9.556 16.8151 9.556H11.2851L11.0331 8.59H16.4231L16.1991 8.786V8.478C16.1617 8.09533 16.0311 7.76867 15.8071 7.498C15.5924 7.218 15.3264 7.00333 15.0091 6.854C14.7011 6.70467 14.3744 6.63 14.0291 6.63C13.7491 6.63 13.4691 6.68133 13.1891 6.784C12.9184 6.87733 12.6711 7.036 12.4471 7.26C12.2324 7.47467 12.0551 7.75467 11.9151 8.1C11.7844 8.44533 11.7191 8.86067 11.7191 9.346C11.7191 9.88733 11.8264 10.3633 12.0411 10.774C12.2651 11.1847 12.5731 11.5113 12.9651 11.754C13.3571 11.9873 13.8144 12.104 14.3371 12.104C14.6637 12.104 14.9484 12.062 15.1911 11.978C15.4337 11.894 15.6437 11.7913 15.8211 11.67C15.9984 11.5393 16.1477 11.4087 16.2691 11.278C16.3904 11.194 16.5071 11.152 16.6191 11.152C16.7591 11.152 16.8711 11.1987 16.9551 11.292C17.0484 11.3853 17.0951 11.4973 17.0951 11.628C17.0951 11.7867 17.0204 11.9267 16.8711 12.048C16.6097 12.3373 16.2551 12.594 15.8071 12.818C15.3591 13.0327 14.8831 13.14 14.3791 13.14ZM25.0771 5.692C25.2358 5.692 25.3665 5.748 25.4691 5.86C25.5811 5.96267 25.6371 6.09333 25.6371 6.252V12.426C25.6371 12.5847 25.5811 12.72 25.4691 12.832C25.3665 12.944 25.2358 13 25.0771 13C24.9091 13 24.7738 12.944 24.6711 12.832C24.5685 12.72 24.5171 12.5847 24.5171 12.426V11.096L24.7831 11.068C24.7831 11.2733 24.7131 11.4973 24.5731 11.74C24.4331 11.9827 24.2418 12.2113 23.9991 12.426C23.7565 12.6313 23.4671 12.804 23.1311 12.944C22.8045 13.0747 22.4498 13.14 22.0671 13.14C21.4325 13.14 20.8631 12.9767 20.3591 12.65C19.8551 12.314 19.4538 11.8613 19.1551 11.292C18.8658 10.7227 18.7211 10.074 18.7211 9.346C18.7211 8.60867 18.8658 7.96 19.1551 7.4C19.4538 6.83067 19.8551 6.38733 20.3591 6.07C20.8631 5.74333 21.4231 5.58 22.0391 5.58C22.4405 5.58 22.8138 5.64533 23.1591 5.776C23.5045 5.90667 23.8031 6.084 24.0551 6.308C24.3165 6.532 24.5171 6.77933 24.6571 7.05C24.8065 7.32067 24.8811 7.59133 24.8811 7.862L24.5171 7.778V6.252C24.5171 6.09333 24.5685 5.96267 24.6711 5.86C24.7738 5.748 24.9091 5.692 25.0771 5.692ZM22.1931 12.104C22.6598 12.104 23.0705 11.9827 23.4251 11.74C23.7891 11.4973 24.0691 11.1707 24.2651 10.76C24.4705 10.34 24.5731 9.86867 24.5731 9.346C24.5731 8.83267 24.4705 8.37067 24.2651 7.96C24.0691 7.54 23.7891 7.21333 23.4251 6.98C23.0705 6.73733 22.6598 6.616 22.1931 6.616C21.7358 6.616 21.3251 6.73267 20.9611 6.966C20.6065 7.19933 20.3265 7.52133 20.1211 7.932C19.9158 8.34267 19.8131 8.814 19.8131 9.346C19.8131 9.86867 19.9111 10.34 20.1071 10.76C20.3125 11.1707 20.5925 11.4973 20.9471 11.74C21.3111 11.9827 21.7265 12.104 22.1931 12.104ZM33.6768 2.64C33.8354 2.64 33.9661 2.696 34.0688 2.808C34.1808 2.91067 34.2368 3.04133 34.2368 3.2V12.426C34.2368 12.5847 34.1808 12.72 34.0688 12.832C33.9661 12.944 33.8354 13 33.6768 13C33.5088 13 33.3734 12.944 33.2708 12.832C33.1681 12.72 33.1168 12.5847 33.1168 12.426V11.096L33.3828 10.998C33.3828 11.222 33.3128 11.46 33.1728 11.712C33.0328 11.9547 32.8414 12.1833 32.5988 12.398C32.3561 12.6127 32.0668 12.79 31.7308 12.93C31.4041 13.07 31.0494 13.14 30.6668 13.14C30.0414 13.14 29.4721 12.9767 28.9588 12.65C28.4548 12.3233 28.0534 11.8753 27.7548 11.306C27.4654 10.7367 27.3208 10.088 27.3208 9.36C27.3208 8.62267 27.4654 7.96933 27.7548 7.4C28.0534 6.83067 28.4548 6.38733 28.9588 6.07C29.4628 5.74333 30.0228 5.58 30.6388 5.58C31.0308 5.58 31.3994 5.64533 31.7448 5.776C32.0901 5.90667 32.3888 6.084 32.6408 6.308C32.9021 6.532 33.1074 6.77933 33.2568 7.05C33.4061 7.32067 33.4808 7.59133 33.4808 7.862L33.1168 7.778V3.2C33.1168 3.04133 33.1681 2.91067 33.2708 2.808C33.3734 2.696 33.5088 2.64 33.6768 2.64ZM30.7928 12.104C31.2594 12.104 31.6701 11.9873 32.0248 11.754C32.3888 11.5113 32.6688 11.1847 32.8648 10.774C33.0701 10.354 33.1728 9.88267 33.1728 9.36C33.1728 8.828 33.0701 8.35667 32.8648 7.946C32.6688 7.53533 32.3888 7.21333 32.0248 6.98C31.6701 6.73733 31.2594 6.616 30.7928 6.616C30.3354 6.616 29.9248 6.73733 29.5608 6.98C29.2061 7.21333 28.9261 7.53533 28.7208 7.946C28.5154 8.35667 28.4128 8.828 28.4128 9.36C28.4128 9.87333 28.5154 10.34 28.7208 10.76C28.9261 11.1707 29.2061 11.4973 29.5608 11.74C29.9248 11.9827 30.3354 12.104 30.7928 12.104ZM40.9378 3.186C41.0218 3.186 41.1105 3.20933 41.2038 3.256C41.3065 3.30267 41.3858 3.36333 41.4418 3.438L45.1518 9.052L44.6618 9.038L48.4138 3.438C48.5352 3.26067 48.6938 3.17667 48.8898 3.186C49.0392 3.19533 49.1698 3.25133 49.2818 3.354C49.3938 3.45667 49.4498 3.592 49.4498 3.76V12.426C49.4498 12.5847 49.3938 12.72 49.2818 12.832C49.1698 12.944 49.0298 13 48.8618 13C48.6938 13 48.5538 12.944 48.4418 12.832C48.3298 12.72 48.2738 12.5847 48.2738 12.426V4.824L48.6238 4.894L45.3198 9.92C45.2638 9.98533 45.1938 10.0413 45.1098 10.088C45.0352 10.1347 44.9558 10.158 44.8718 10.158C44.7878 10.158 44.7038 10.1347 44.6198 10.088C44.5358 10.0413 44.4658 9.98533 44.4098 9.92L41.1478 4.894L41.4418 4.53V12.426C41.4418 12.5847 41.3905 12.72 41.2878 12.832C41.1852 12.944 41.0545 13 40.8958 13C40.7372 13 40.6065 12.944 40.5038 12.832C40.4105 12.72 40.3638 12.5847 40.3638 12.426V3.76C40.3638 3.61067 40.4152 3.48 40.5178 3.368C40.6298 3.24667 40.7698 3.186 40.9378 3.186ZM58.5809 9.36C58.5809 10.088 58.4176 10.7367 58.0909 11.306C57.7736 11.8753 57.3396 12.3233 56.7889 12.65C56.2476 12.9767 55.6362 13.14 54.9549 13.14C54.2736 13.14 53.6576 12.9767 53.1069 12.65C52.5562 12.3233 52.1176 11.8753 51.7909 11.306C51.4736 10.7367 51.3149 10.088 51.3149 9.36C51.3149 8.632 51.4736 7.98333 51.7909 7.414C52.1176 6.84467 52.5562 6.39667 53.1069 6.07C53.6576 5.74333 54.2736 5.58 54.9549 5.58C55.6362 5.58 56.2476 5.74333 56.7889 6.07C57.3396 6.39667 57.7736 6.84467 58.0909 7.414C58.4176 7.98333 58.5809 8.632 58.5809 9.36ZM57.4609 9.36C57.4609 8.81867 57.3489 8.34267 57.1249 7.932C56.9102 7.52133 56.6116 7.19933 56.2289 6.966C55.8556 6.73267 55.4309 6.616 54.9549 6.616C54.4789 6.616 54.0496 6.73267 53.6669 6.966C53.2936 7.19933 52.9949 7.52133 52.7709 7.932C52.5469 8.34267 52.4349 8.81867 52.4349 9.36C52.4349 9.892 52.5469 10.3633 52.7709 10.774C52.9949 11.1847 53.2936 11.5113 53.6669 11.754C54.0496 11.9873 54.4789 12.104 54.9549 12.104C55.4309 12.104 55.8556 11.9873 56.2289 11.754C56.6116 11.5113 56.9102 11.1847 57.1249 10.774C57.3489 10.3633 57.4609 9.892 57.4609 9.36ZM60.8255 13C60.6668 13 60.5315 12.944 60.4195 12.832C60.3168 12.72 60.2655 12.5847 60.2655 12.426V6.322C60.2655 6.16333 60.3168 6.03267 60.4195 5.93C60.5315 5.818 60.6668 5.762 60.8255 5.762C60.9935 5.762 61.1288 5.818 61.2315 5.93C61.3342 6.03267 61.3855 6.16333 61.3855 6.322V8.17L61.2175 7.876C61.2735 7.58667 61.3715 7.30667 61.5115 7.036C61.6608 6.756 61.8475 6.50867 62.0715 6.294C62.2955 6.07 62.5522 5.89733 62.8415 5.776C63.1308 5.64533 63.4482 5.58 63.7935 5.58C63.9988 5.58 64.1855 5.63133 64.3535 5.734C64.5308 5.82733 64.6195 5.96267 64.6195 6.14C64.6195 6.336 64.5682 6.48067 64.4655 6.574C64.3628 6.66733 64.2462 6.714 64.1155 6.714C63.9942 6.714 63.8775 6.69067 63.7655 6.644C63.6535 6.588 63.5135 6.56 63.3455 6.56C63.1122 6.56 62.8788 6.62533 62.6455 6.756C62.4215 6.87733 62.2115 7.05467 62.0155 7.288C61.8288 7.52133 61.6748 7.78733 61.5535 8.086C61.4415 8.37533 61.3855 8.688 61.3855 9.024V12.426C61.3855 12.5847 61.3295 12.72 61.2175 12.832C61.1148 12.944 60.9842 13 60.8255 13ZM68.9162 13.14C68.1695 13.14 67.5162 12.9813 66.9562 12.664C66.3962 12.3467 65.9575 11.9127 65.6402 11.362C65.3322 10.802 65.1782 10.158 65.1782 9.43C65.1782 8.618 65.3368 7.92733 65.6542 7.358C65.9808 6.77933 66.4008 6.34067 66.9142 6.042C67.4368 5.734 67.9875 5.58 68.5662 5.58C68.9955 5.58 69.4108 5.65933 69.8122 5.818C70.2135 5.97667 70.5682 6.21 70.8762 6.518C71.1842 6.81667 71.4315 7.18067 71.6182 7.61C71.8048 8.03 71.9028 8.50133 71.9122 9.024C71.9122 9.17333 71.8562 9.29933 71.7442 9.402C71.6322 9.50467 71.5015 9.556 71.3522 9.556H65.8222L65.5702 8.59H70.9602L70.7362 8.786V8.478C70.6988 8.09533 70.5682 7.76867 70.3442 7.498C70.1295 7.218 69.8635 7.00333 69.5462 6.854C69.2382 6.70467 68.9115 6.63 68.5662 6.63C68.2862 6.63 68.0062 6.68133 67.7262 6.784C67.4555 6.87733 67.2082 7.036 66.9842 7.26C66.7695 7.47467 66.5922 7.75467 66.4522 8.1C66.3215 8.44533 66.2562 8.86067 66.2562 9.346C66.2562 9.88733 66.3635 10.3633 66.5782 10.774C66.8022 11.1847 67.1102 11.5113 67.5022 11.754C67.8942 11.9873 68.3515 12.104 68.8742 12.104C69.2008 12.104 69.4855 12.062 69.7282 11.978C69.9708 11.894 70.1808 11.7913 70.3582 11.67C70.5355 11.5393 70.6848 11.4087 70.8062 11.278C70.9275 11.194 71.0442 11.152 71.1562 11.152C71.2962 11.152 71.4082 11.1987 71.4922 11.292C71.5855 11.3853 71.6322 11.4973 71.6322 11.628C71.6322 11.7867 71.5575 11.9267 71.4082 12.048C71.1468 12.3373 70.7922 12.594 70.3442 12.818C69.8962 13.0327 69.4202 13.14 68.9162 13.14ZM80.503 13.14C79.8124 13.14 79.2057 13.0373 78.683 12.832C78.1604 12.6267 77.6564 12.3 77.171 11.852C77.1057 11.7867 77.0497 11.7167 77.003 11.642C76.9657 11.558 76.947 11.4693 76.947 11.376C76.947 11.2267 76.9984 11.096 77.101 10.984C77.213 10.8627 77.3484 10.802 77.507 10.802C77.6377 10.802 77.7544 10.8533 77.857 10.956C78.221 11.3107 78.613 11.5813 79.033 11.768C79.4624 11.9547 79.943 12.048 80.475 12.048C80.8857 12.048 81.2544 11.9827 81.581 11.852C81.917 11.7213 82.183 11.5393 82.379 11.306C82.575 11.0727 82.673 10.802 82.673 10.494C82.6637 10.1207 82.5517 9.81267 82.337 9.57C82.1317 9.32733 81.8424 9.12667 81.469 8.968C81.105 8.8 80.6804 8.66 80.195 8.548C79.7657 8.44533 79.369 8.31933 79.005 8.17C78.6504 8.02067 78.3424 7.83867 78.081 7.624C77.8197 7.4 77.6144 7.134 77.465 6.826C77.325 6.50867 77.255 6.14 77.255 5.72C77.255 5.188 77.395 4.72133 77.675 4.32C77.955 3.91867 78.3424 3.61067 78.837 3.396C79.3317 3.172 79.901 3.06 80.545 3.06C81.1144 3.06 81.651 3.15333 82.155 3.34C82.6684 3.52667 83.079 3.78333 83.387 4.11C83.5737 4.28733 83.667 4.46 83.667 4.628C83.667 4.768 83.6064 4.89867 83.485 5.02C83.373 5.132 83.2424 5.188 83.093 5.188C82.9904 5.188 82.897 5.15067 82.813 5.076C82.6544 4.89867 82.4537 4.74 82.211 4.6C81.9684 4.46 81.7024 4.348 81.413 4.264C81.1237 4.18 80.8344 4.138 80.545 4.138C80.1157 4.138 79.7377 4.20333 79.411 4.334C79.0844 4.45533 78.8277 4.63267 78.641 4.866C78.4637 5.09 78.375 5.36067 78.375 5.678C78.375 6.03267 78.4777 6.32667 78.683 6.56C78.8884 6.784 79.1637 6.97067 79.509 7.12C79.8544 7.26 80.237 7.386 80.657 7.498C81.1144 7.61 81.5344 7.74067 81.917 7.89C82.309 8.03 82.645 8.20733 82.925 8.422C83.205 8.63667 83.4197 8.912 83.569 9.248C83.7277 9.57467 83.807 9.98067 83.807 10.466C83.807 10.9793 83.6624 11.4367 83.373 11.838C83.0837 12.2393 82.687 12.5567 82.183 12.79C81.6884 13.014 81.1284 13.1307 80.503 13.14ZM85.2101 5.804H88.5001C88.6494 5.804 88.7708 5.85533 88.8641 5.958C88.9668 6.06067 89.0181 6.182 89.0181 6.322C89.0181 6.47133 88.9668 6.59733 88.8641 6.7C88.7708 6.79333 88.6494 6.84 88.5001 6.84H85.2101C85.0701 6.84 84.9488 6.78867 84.8461 6.686C84.7434 6.58333 84.6921 6.45733 84.6921 6.308C84.6921 6.168 84.7434 6.05133 84.8461 5.958C84.9488 5.85533 85.0701 5.804 85.2101 5.804ZM86.6801 3.9C86.8388 3.9 86.9694 3.956 87.0721 4.068C87.1748 4.17067 87.2261 4.30133 87.2261 4.46V11.222C87.2261 11.446 87.2588 11.614 87.3241 11.726C87.3894 11.838 87.4734 11.9173 87.5761 11.964C87.6881 12.0013 87.7954 12.02 87.8981 12.02C87.9914 12.02 88.0708 12.006 88.1361 11.978C88.2108 11.9407 88.2948 11.922 88.3881 11.922C88.4814 11.922 88.5654 11.9687 88.6401 12.062C88.7241 12.146 88.7661 12.258 88.7661 12.398C88.7661 12.566 88.6681 12.7107 88.4721 12.832C88.2761 12.944 88.0568 13 87.8141 13C87.6834 13 87.5201 12.9907 87.3241 12.972C87.1374 12.9533 86.9508 12.8927 86.7641 12.79C86.5774 12.6873 86.4188 12.5193 86.2881 12.286C86.1668 12.0433 86.1061 11.7073 86.1061 11.278V4.46C86.1061 4.30133 86.1621 4.17067 86.2741 4.068C86.3861 3.956 86.5214 3.9 86.6801 3.9ZM97.3817 9.36C97.3817 10.088 97.2183 10.7367 96.8917 11.306C96.5743 11.8753 96.1403 12.3233 95.5897 12.65C95.0483 12.9767 94.437 13.14 93.7557 13.14C93.0743 13.14 92.4583 12.9767 91.9077 12.65C91.357 12.3233 90.9183 11.8753 90.5917 11.306C90.2743 10.7367 90.1157 10.088 90.1157 9.36C90.1157 8.632 90.2743 7.98333 90.5917 7.414C90.9183 6.84467 91.357 6.39667 91.9077 6.07C92.4583 5.74333 93.0743 5.58 93.7557 5.58C94.437 5.58 95.0483 5.74333 95.5897 6.07C96.1403 6.39667 96.5743 6.84467 96.8917 7.414C97.2183 7.98333 97.3817 8.632 97.3817 9.36ZM96.2617 9.36C96.2617 8.81867 96.1497 8.34267 95.9257 7.932C95.711 7.52133 95.4123 7.19933 95.0297 6.966C94.6563 6.73267 94.2317 6.616 93.7557 6.616C93.2797 6.616 92.8503 6.73267 92.4677 6.966C92.0943 7.19933 91.7957 7.52133 91.5717 7.932C91.3477 8.34267 91.2357 8.81867 91.2357 9.36C91.2357 9.892 91.3477 10.3633 91.5717 10.774C91.7957 11.1847 92.0943 11.5113 92.4677 11.754C92.8503 11.9873 93.2797 12.104 93.7557 12.104C94.2317 12.104 94.6563 11.9873 95.0297 11.754C95.4123 11.5113 95.711 11.1847 95.9257 10.774C96.1497 10.3633 96.2617 9.892 96.2617 9.36ZM99.6263 13C99.4676 13 99.3323 12.944 99.2203 12.832C99.1176 12.72 99.0663 12.5847 99.0663 12.426V6.322C99.0663 6.16333 99.1176 6.03267 99.2203 5.93C99.3323 5.818 99.4676 5.762 99.6263 5.762C99.7943 5.762 99.9296 5.818 100.032 5.93C100.135 6.03267 100.186 6.16333 100.186 6.322V8.17L100.018 7.876C100.074 7.58667 100.172 7.30667 100.312 7.036C100.462 6.756 100.648 6.50867 100.872 6.294C101.096 6.07 101.353 5.89733 101.642 5.776C101.932 5.64533 102.249 5.58 102.594 5.58C102.8 5.58 102.986 5.63133 103.154 5.734C103.332 5.82733 103.42 5.96267 103.42 6.14C103.42 6.336 103.369 6.48067 103.266 6.574C103.164 6.66733 103.047 6.714 102.916 6.714C102.795 6.714 102.678 6.69067 102.566 6.644C102.454 6.588 102.314 6.56 102.146 6.56C101.913 6.56 101.68 6.62533 101.446 6.756C101.222 6.87733 101.012 7.05467 100.816 7.288C100.63 7.52133 100.476 7.78733 100.354 8.086C100.242 8.37533 100.186 8.688 100.186 9.024V12.426C100.186 12.5847 100.13 12.72 100.018 12.832C99.9156 12.944 99.7849 13 99.6263 13ZM105.763 12.426C105.763 12.5847 105.707 12.72 105.595 12.832C105.493 12.944 105.362 13 105.203 13C105.035 13 104.9 12.944 104.797 12.832C104.695 12.72 104.643 12.5847 104.643 12.426V6.21C104.643 6.05133 104.695 5.92067 104.797 5.818C104.909 5.706 105.045 5.65 105.203 5.65C105.362 5.65 105.493 5.706 105.595 5.818C105.707 5.92067 105.763 6.05133 105.763 6.21V12.426ZM105.203 4.712C104.97 4.712 104.797 4.66533 104.685 4.572C104.573 4.47867 104.517 4.334 104.517 4.138V3.942C104.517 3.746 104.578 3.60133 104.699 3.508C104.821 3.41467 104.993 3.368 105.217 3.368C105.441 3.368 105.609 3.41467 105.721 3.508C105.833 3.60133 105.889 3.746 105.889 3.942V4.138C105.889 4.334 105.829 4.47867 105.707 4.572C105.595 4.66533 105.427 4.712 105.203 4.712ZM111.121 13.14C110.375 13.14 109.721 12.9813 109.161 12.664C108.601 12.3467 108.163 11.9127 107.845 11.362C107.537 10.802 107.383 10.158 107.383 9.43C107.383 8.618 107.542 7.92733 107.859 7.358C108.186 6.77933 108.606 6.34067 109.119 6.042C109.642 5.734 110.193 5.58 110.771 5.58C111.201 5.58 111.616 5.65933 112.017 5.818C112.419 5.97667 112.773 6.21 113.081 6.518C113.389 6.81667 113.637 7.18067 113.823 7.61C114.01 8.03 114.108 8.50133 114.117 9.024C114.117 9.17333 114.061 9.29933 113.949 9.402C113.837 9.50467 113.707 9.556 113.557 9.556H108.027L107.775 8.59H113.165L112.941 8.786V8.478C112.904 8.09533 112.773 7.76867 112.549 7.498C112.335 7.218 112.069 7.00333 111.751 6.854C111.443 6.70467 111.117 6.63 110.771 6.63C110.491 6.63 110.211 6.68133 109.931 6.784C109.661 6.87733 109.413 7.036 109.189 7.26C108.975 7.47467 108.797 7.75467 108.657 8.1C108.527 8.44533 108.461 8.86067 108.461 9.346C108.461 9.88733 108.569 10.3633 108.783 10.774C109.007 11.1847 109.315 11.5113 109.707 11.754C110.099 11.9873 110.557 12.104 111.079 12.104C111.406 12.104 111.691 12.062 111.933 11.978C112.176 11.894 112.386 11.7913 112.563 11.67C112.741 11.5393 112.89 11.4087 113.011 11.278C113.133 11.194 113.249 11.152 113.361 11.152C113.501 11.152 113.613 11.1987 113.697 11.292C113.791 11.3853 113.837 11.4973 113.837 11.628C113.837 11.7867 113.763 11.9267 113.613 12.048C113.352 12.3373 112.997 12.594 112.549 12.818C112.101 13.0327 111.625 13.14 111.121 13.14ZM115.395 11.852C115.311 11.7307 115.273 11.6047 115.283 11.474C115.292 11.334 115.371 11.2127 115.521 11.11C115.614 11.0447 115.721 11.0167 115.843 11.026C115.973 11.0353 116.09 11.096 116.193 11.208C116.454 11.516 116.753 11.7633 117.089 11.95C117.425 12.1273 117.835 12.216 118.321 12.216C118.545 12.2067 118.769 12.1693 118.993 12.104C119.217 12.0387 119.403 11.9267 119.553 11.768C119.711 11.6 119.791 11.3807 119.791 11.11C119.791 10.8487 119.711 10.6433 119.553 10.494C119.394 10.3353 119.189 10.2093 118.937 10.116C118.685 10.0133 118.409 9.92467 118.111 9.85C117.803 9.766 117.499 9.67267 117.201 9.57C116.902 9.458 116.631 9.32267 116.389 9.164C116.155 8.996 115.964 8.79067 115.815 8.548C115.675 8.296 115.605 7.99267 115.605 7.638C115.605 7.218 115.717 6.854 115.941 6.546C116.174 6.238 116.482 6 116.865 5.832C117.257 5.664 117.681 5.58 118.139 5.58C118.4 5.58 118.671 5.61267 118.951 5.678C119.24 5.734 119.52 5.83667 119.791 5.986C120.061 6.126 120.299 6.322 120.505 6.574C120.589 6.66733 120.635 6.784 120.645 6.924C120.654 7.064 120.593 7.19 120.463 7.302C120.36 7.37667 120.243 7.40933 120.113 7.4C119.991 7.39067 119.889 7.344 119.805 7.26C119.609 7.02667 119.361 6.84933 119.063 6.728C118.773 6.59733 118.451 6.532 118.097 6.532C117.873 6.532 117.653 6.56467 117.439 6.63C117.224 6.69533 117.042 6.80733 116.893 6.966C116.753 7.11533 116.683 7.32533 116.683 7.596C116.692 7.848 116.776 8.05333 116.935 8.212C117.093 8.37067 117.308 8.50133 117.579 8.604C117.849 8.69733 118.148 8.79067 118.475 8.884C118.773 8.95867 119.058 9.04733 119.329 9.15C119.609 9.24333 119.861 9.36933 120.085 9.528C120.309 9.68667 120.486 9.892 120.617 10.144C120.747 10.3867 120.813 10.6947 120.813 11.068C120.813 11.4973 120.691 11.8707 120.449 12.188C120.206 12.496 119.884 12.734 119.483 12.902C119.091 13.0607 118.666 13.14 118.209 13.14C117.695 13.14 117.187 13.042 116.683 12.846C116.188 12.65 115.759 12.3187 115.395 11.852Z" fill="#6606EF"/>
<path d="M130.03 3.46967C129.737 3.17678 129.263 3.17678 128.97 3.46967C128.677 3.76256 128.677 4.23744 128.97 4.53033L130.03 3.46967ZM133.5 8L134.03 8.53033C134.323 8.23744 134.323 7.76256 134.03 7.46967L133.5 8ZM128.97 11.4697C128.677 11.7626 128.677 12.2374 128.97 12.5303C129.263 12.8232 129.737 12.8232 130.03 12.5303L128.97 11.4697ZM128.97 4.53033L132.97 8.53033L134.03 7.46967L130.03 3.46967L128.97 4.53033ZM132.97 7.46967L128.97 11.4697L130.03 12.5303L134.03 8.53033L132.97 7.46967Z" fill="#6606EF"/>
</svg>
