<svg width="218" height="16" viewBox="0 0 218 16" fill="none" xmlns="http://www.w3.org/2000/svg">
<path d="M4.72508 13C4.55708 13 4.41708 12.944 4.30508 12.832C4.19308 12.72 4.13708 12.5847 4.13708 12.426V3.774H5.32708V12.426C5.32708 12.5847 5.27108 12.72 5.15908 12.832C5.04708 12.944 4.90241 13 4.72508 13ZM1.47708 4.264C1.31841 4.264 1.18308 4.21733 1.07108 4.124C0.968411 4.02133 0.917078 3.89067 0.917078 3.732C0.917078 3.57333 0.968411 3.44733 1.07108 3.354C1.18308 3.25133 1.31841 3.2 1.47708 3.2H7.98708C8.14575 3.2 8.28108 3.25133 8.39308 3.354C8.50508 3.44733 8.56108 3.57333 8.56108 3.732C8.56108 3.9 8.50508 4.03067 8.39308 4.124C8.28108 4.21733 8.14575 4.264 7.98708 4.264H1.47708ZM15.242 9.36C15.242 10.088 15.0787 10.7367 14.752 11.306C14.4347 11.8753 14.0007 12.3233 13.45 12.65C12.9087 12.9767 12.2974 13.14 11.616 13.14C10.9347 13.14 10.3187 12.9767 9.76803 12.65C9.21736 12.3233 8.7787 11.8753 8.45203 11.306C8.1347 10.7367 7.97603 10.088 7.97603 9.36C7.97603 8.632 8.1347 7.98333 8.45203 7.414C8.7787 6.84467 9.21736 6.39667 9.76803 6.07C10.3187 5.74333 10.9347 5.58 11.616 5.58C12.2974 5.58 12.9087 5.74333 13.45 6.07C14.0007 6.39667 14.4347 6.84467 14.752 7.414C15.0787 7.98333 15.242 8.632 15.242 9.36ZM14.122 9.36C14.122 8.81867 14.01 8.34267 13.786 7.932C13.5714 7.52133 13.2727 7.19933 12.89 6.966C12.5167 6.73267 12.092 6.616 11.616 6.616C11.14 6.616 10.7107 6.73267 10.328 6.966C9.9547 7.19933 9.65603 7.52133 9.43203 7.932C9.20803 8.34267 9.09603 8.81867 9.09603 9.36C9.09603 9.892 9.20803 10.3633 9.43203 10.774C9.65603 11.1847 9.9547 11.5113 10.328 11.754C10.7107 11.9873 11.14 12.104 11.616 12.104C12.092 12.104 12.5167 11.9873 12.89 11.754C13.2727 11.5113 13.5714 11.1847 13.786 10.774C14.01 10.3633 14.122 9.892 14.122 9.36ZM27.8941 13.028C27.7261 13.028 27.5861 12.958 27.4741 12.818L23.7501 8.072L24.6041 7.204L28.3981 12.062C28.4821 12.1833 28.5241 12.3093 28.5241 12.44C28.5241 12.6267 28.4541 12.7713 28.3141 12.874C28.1834 12.9767 28.0434 13.028 27.8941 13.028ZM27.8521 3.186C28.0014 3.186 28.1228 3.24667 28.2161 3.368C28.3188 3.48933 28.3701 3.61533 28.3701 3.746C28.3701 3.87667 28.3141 3.998 28.2021 4.11L22.0141 9.962L21.9161 8.66L27.4041 3.396C27.5441 3.256 27.6934 3.186 27.8521 3.186ZM21.5521 13C21.3748 13 21.2348 12.944 21.1321 12.832C21.0294 12.72 20.9781 12.5847 20.9781 12.426V3.774C20.9781 3.606 21.0341 3.47067 21.1461 3.368C21.2581 3.256 21.3981 3.2 21.5661 3.2C21.7434 3.2 21.8834 3.256 21.9861 3.368C22.0888 3.47067 22.1401 3.606 22.1401 3.774V12.426C22.1401 12.5847 22.0841 12.72 21.9721 12.832C21.8694 12.944 21.7294 13 21.5521 13ZM33.636 5.58C34.2706 5.58 34.77 5.71067 35.134 5.972C35.498 6.23333 35.7546 6.58333 35.904 7.022C36.0626 7.46067 36.142 7.95067 36.142 8.492V12.426C36.142 12.5847 36.086 12.72 35.974 12.832C35.8713 12.944 35.7406 13 35.582 13C35.4233 13 35.288 12.944 35.176 12.832C35.0733 12.72 35.022 12.5847 35.022 12.426V8.52C35.022 8.16533 34.966 7.848 34.854 7.568C34.7513 7.27867 34.574 7.05 34.322 6.882C34.0793 6.70467 33.7433 6.616 33.314 6.616C32.922 6.616 32.5626 6.70467 32.236 6.882C31.9093 7.05 31.648 7.27867 31.452 7.568C31.256 7.848 31.158 8.16533 31.158 8.52V12.426C31.158 12.5847 31.102 12.72 30.99 12.832C30.8873 12.944 30.7566 13 30.598 13C30.4393 13 30.304 12.944 30.192 12.832C30.0893 12.72 30.038 12.5847 30.038 12.426V6.322C30.038 6.16333 30.0893 6.03267 30.192 5.93C30.304 5.818 30.4393 5.762 30.598 5.762C30.766 5.762 30.9013 5.818 31.004 5.93C31.1066 6.03267 31.158 6.16333 31.158 6.322V7.316L30.878 7.624C30.9246 7.38133 31.032 7.13867 31.2 6.896C31.368 6.644 31.578 6.42 31.83 6.224C32.082 6.028 32.362 5.874 32.67 5.762C32.978 5.64067 33.3 5.58 33.636 5.58ZM45.0877 9.36C45.0877 10.088 44.9244 10.7367 44.5977 11.306C44.2804 11.8753 43.8464 12.3233 43.2957 12.65C42.7544 12.9767 42.1431 13.14 41.4617 13.14C40.7804 13.14 40.1644 12.9767 39.6137 12.65C39.0631 12.3233 38.6244 11.8753 38.2977 11.306C37.9804 10.7367 37.8217 10.088 37.8217 9.36C37.8217 8.632 37.9804 7.98333 38.2977 7.414C38.6244 6.84467 39.0631 6.39667 39.6137 6.07C40.1644 5.74333 40.7804 5.58 41.4617 5.58C42.1431 5.58 42.7544 5.74333 43.2957 6.07C43.8464 6.39667 44.2804 6.84467 44.5977 7.414C44.9244 7.98333 45.0877 8.632 45.0877 9.36ZM43.9677 9.36C43.9677 8.81867 43.8557 8.34267 43.6317 7.932C43.4171 7.52133 43.1184 7.19933 42.7357 6.966C42.3624 6.73267 41.9377 6.616 41.4617 6.616C40.9857 6.616 40.5564 6.73267 40.1737 6.966C39.8004 7.19933 39.5017 7.52133 39.2777 7.932C39.0537 8.34267 38.9417 8.81867 38.9417 9.36C38.9417 9.892 39.0537 10.3633 39.2777 10.774C39.5017 11.1847 39.8004 11.5113 40.1737 11.754C40.5564 11.9873 40.9857 12.104 41.4617 12.104C41.9377 12.104 42.3624 11.9873 42.7357 11.754C43.1184 11.5113 43.4171 11.1847 43.6317 10.774C43.8557 10.3633 43.9677 9.892 43.9677 9.36ZM55.3123 5.636C55.4617 5.636 55.5877 5.68733 55.6903 5.79C55.8023 5.89267 55.8583 6.028 55.8583 6.196C55.8583 6.23333 55.8537 6.27533 55.8443 6.322C55.8443 6.35933 55.835 6.39667 55.8163 6.434L53.6603 12.636C53.6137 12.7573 53.5343 12.8507 53.4223 12.916C53.3197 12.9813 53.2077 13.0093 53.0863 13C52.8717 12.9907 52.7083 12.8693 52.5963 12.636L50.8323 8.212L51.1123 8.254L49.5163 12.636C49.4137 12.8693 49.2503 12.9907 49.0263 13C48.905 13.0093 48.7883 12.9813 48.6763 12.916C48.5643 12.8507 48.4897 12.7573 48.4523 12.636L46.2543 6.434C46.2263 6.35 46.2123 6.27067 46.2123 6.196C46.2123 6.04667 46.2637 5.916 46.3663 5.804C46.469 5.692 46.609 5.636 46.7863 5.636C46.8983 5.636 47.001 5.664 47.0943 5.72C47.1877 5.776 47.253 5.86467 47.2903 5.986L49.1803 11.502L48.8863 11.488L50.5243 7.288C50.6177 7.05467 50.7903 6.938 51.0423 6.938C51.173 6.938 51.2757 6.97067 51.3503 7.036C51.4343 7.092 51.495 7.176 51.5323 7.288L53.2403 11.488L52.8903 11.516L54.7803 5.986C54.8643 5.75267 55.0417 5.636 55.3123 5.636ZM61.9935 3.186C62.0775 3.186 62.1662 3.20933 62.2595 3.256C62.3622 3.30267 62.4415 3.36333 62.4975 3.438L66.2075 9.052L65.7175 9.038L69.4695 3.438C69.5908 3.26067 69.7495 3.17667 69.9455 3.186C70.0948 3.19533 70.2255 3.25133 70.3375 3.354C70.4495 3.45667 70.5055 3.592 70.5055 3.76V12.426C70.5055 12.5847 70.4495 12.72 70.3375 12.832C70.2255 12.944 70.0855 13 69.9175 13C69.7495 13 69.6095 12.944 69.4975 12.832C69.3855 12.72 69.3295 12.5847 69.3295 12.426V4.824L69.6795 4.894L66.3755 9.92C66.3195 9.98533 66.2495 10.0413 66.1655 10.088C66.0908 10.1347 66.0115 10.158 65.9275 10.158C65.8435 10.158 65.7595 10.1347 65.6755 10.088C65.5915 10.0413 65.5215 9.98533 65.4655 9.92L62.2035 4.894L62.4975 4.53V12.426C62.4975 12.5847 62.4462 12.72 62.3435 12.832C62.2408 12.944 62.1102 13 61.9515 13C61.7928 13 61.6622 12.944 61.5595 12.832C61.4662 12.72 61.4195 12.5847 61.4195 12.426V3.76C61.4195 3.61067 61.4708 3.48 61.5735 3.368C61.6855 3.24667 61.8255 3.186 61.9935 3.186ZM79.6366 9.36C79.6366 10.088 79.4732 10.7367 79.1466 11.306C78.8292 11.8753 78.3952 12.3233 77.8446 12.65C77.3032 12.9767 76.6919 13.14 76.0106 13.14C75.3292 13.14 74.7132 12.9767 74.1626 12.65C73.6119 12.3233 73.1732 11.8753 72.8466 11.306C72.5292 10.7367 72.3706 10.088 72.3706 9.36C72.3706 8.632 72.5292 7.98333 72.8466 7.414C73.1732 6.84467 73.6119 6.39667 74.1626 6.07C74.7132 5.74333 75.3292 5.58 76.0106 5.58C76.6919 5.58 77.3032 5.74333 77.8446 6.07C78.3952 6.39667 78.8292 6.84467 79.1466 7.414C79.4732 7.98333 79.6366 8.632 79.6366 9.36ZM78.5166 9.36C78.5166 8.81867 78.4046 8.34267 78.1806 7.932C77.9659 7.52133 77.6672 7.19933 77.2846 6.966C76.9112 6.73267 76.4866 6.616 76.0106 6.616C75.5346 6.616 75.1052 6.73267 74.7226 6.966C74.3492 7.19933 74.0506 7.52133 73.8266 7.932C73.6026 8.34267 73.4906 8.81867 73.4906 9.36C73.4906 9.892 73.6026 10.3633 73.8266 10.774C74.0506 11.1847 74.3492 11.5113 74.7226 11.754C75.1052 11.9873 75.5346 12.104 76.0106 12.104C76.4866 12.104 76.9112 11.9873 77.2846 11.754C77.6672 11.5113 77.9659 11.1847 78.1806 10.774C78.4046 10.3633 78.5166 9.892 78.5166 9.36ZM81.8812 13C81.7225 13 81.5872 12.944 81.4752 12.832C81.3725 12.72 81.3212 12.5847 81.3212 12.426V6.322C81.3212 6.16333 81.3725 6.03267 81.4752 5.93C81.5872 5.818 81.7225 5.762 81.8812 5.762C82.0492 5.762 82.1845 5.818 82.2872 5.93C82.3898 6.03267 82.4412 6.16333 82.4412 6.322V8.17L82.2732 7.876C82.3292 7.58667 82.4272 7.30667 82.5672 7.036C82.7165 6.756 82.9032 6.50867 83.1272 6.294C83.3512 6.07 83.6078 5.89733 83.8972 5.776C84.1865 5.64533 84.5038 5.58 84.8492 5.58C85.0545 5.58 85.2412 5.63133 85.4092 5.734C85.5865 5.82733 85.6752 5.96267 85.6752 6.14C85.6752 6.336 85.6238 6.48067 85.5212 6.574C85.4185 6.66733 85.3018 6.714 85.1712 6.714C85.0498 6.714 84.9332 6.69067 84.8212 6.644C84.7092 6.588 84.5692 6.56 84.4012 6.56C84.1678 6.56 83.9345 6.62533 83.7012 6.756C83.4772 6.87733 83.2672 7.05467 83.0712 7.288C82.8845 7.52133 82.7305 7.78733 82.6092 8.086C82.4972 8.37533 82.4412 8.688 82.4412 9.024V12.426C82.4412 12.5847 82.3852 12.72 82.2732 12.832C82.1705 12.944 82.0398 13 81.8812 13ZM89.9718 13.14C89.2252 13.14 88.5718 12.9813 88.0118 12.664C87.4518 12.3467 87.0132 11.9127 86.6958 11.362C86.3878 10.802 86.2338 10.158 86.2338 9.43C86.2338 8.618 86.3925 7.92733 86.7098 7.358C87.0365 6.77933 87.4565 6.34067 87.9698 6.042C88.4925 5.734 89.0432 5.58 89.6218 5.58C90.0512 5.58 90.4665 5.65933 90.8678 5.818C91.2692 5.97667 91.6238 6.21 91.9318 6.518C92.2398 6.81667 92.4872 7.18067 92.6738 7.61C92.8605 8.03 92.9585 8.50133 92.9678 9.024C92.9678 9.17333 92.9118 9.29933 92.7998 9.402C92.6878 9.50467 92.5572 9.556 92.4078 9.556H86.8778L86.6258 8.59H92.0158L91.7918 8.786V8.478C91.7545 8.09533 91.6238 7.76867 91.3998 7.498C91.1852 7.218 90.9192 7.00333 90.6018 6.854C90.2938 6.70467 89.9672 6.63 89.6218 6.63C89.3418 6.63 89.0618 6.68133 88.7818 6.784C88.5112 6.87733 88.2638 7.036 88.0398 7.26C87.8252 7.47467 87.6478 7.75467 87.5078 8.1C87.3772 8.44533 87.3118 8.86067 87.3118 9.346C87.3118 9.88733 87.4192 10.3633 87.6338 10.774C87.8578 11.1847 88.1658 11.5113 88.5578 11.754C88.9498 11.9873 89.4072 12.104 89.9298 12.104C90.2565 12.104 90.5412 12.062 90.7838 11.978C91.0265 11.894 91.2365 11.7913 91.4138 11.67C91.5912 11.5393 91.7405 11.4087 91.8618 11.278C91.9832 11.194 92.0998 11.152 92.2118 11.152C92.3518 11.152 92.4638 11.1987 92.5478 11.292C92.6412 11.3853 92.6878 11.4973 92.6878 11.628C92.6878 11.7867 92.6132 11.9267 92.4638 12.048C92.2025 12.3373 91.8478 12.594 91.3998 12.818C90.9518 13.0327 90.4758 13.14 89.9718 13.14ZM99.3467 13C99.1694 13 99.0154 12.944 98.8847 12.832C98.7634 12.72 98.7027 12.5847 98.7027 12.426V3.76C98.7027 3.60133 98.754 3.47067 98.8567 3.368C98.9687 3.256 99.104 3.2 99.2627 3.2H103.127C103.649 3.2 104.121 3.32133 104.541 3.564C104.961 3.79733 105.292 4.124 105.535 4.544C105.787 4.95467 105.913 5.43067 105.913 5.972C105.913 6.364 105.838 6.73267 105.689 7.078C105.539 7.414 105.334 7.708 105.073 7.96C104.811 8.20267 104.513 8.38933 104.177 8.52L103.869 8.296C104.186 8.37067 104.471 8.506 104.723 8.702C104.975 8.88867 105.18 9.13133 105.339 9.43C105.497 9.71933 105.581 10.06 105.591 10.452C105.609 10.7973 105.633 11.0727 105.661 11.278C105.689 11.4833 105.731 11.6467 105.787 11.768C105.843 11.88 105.922 11.9687 106.025 12.034C106.155 12.118 106.239 12.23 106.277 12.37C106.323 12.51 106.3 12.6453 106.207 12.776C106.151 12.86 106.071 12.9207 105.969 12.958C105.866 12.986 105.763 12.9953 105.661 12.986C105.558 12.9767 105.469 12.9487 105.395 12.902C105.245 12.818 105.101 12.6967 104.961 12.538C104.821 12.37 104.704 12.132 104.611 11.824C104.517 11.516 104.471 11.096 104.471 10.564C104.471 10.2653 104.424 10.018 104.331 9.822C104.237 9.626 104.111 9.46733 103.953 9.346C103.794 9.22467 103.617 9.14067 103.421 9.094C103.225 9.04733 103.024 9.024 102.819 9.024H99.6967L99.8647 8.772V12.426C99.8647 12.5847 99.818 12.72 99.7247 12.832C99.6314 12.944 99.5054 13 99.3467 13ZM99.6967 8.016H103.127C103.397 7.99733 103.649 7.904 103.883 7.736C104.125 7.568 104.321 7.33467 104.471 7.036C104.629 6.728 104.709 6.38267 104.709 6C104.709 5.50533 104.55 5.09467 104.233 4.768C103.925 4.44133 103.533 4.278 103.057 4.278H99.7527L99.8647 4.012V8.268L99.6967 8.016ZM111.245 13.14C110.499 13.14 109.845 12.9813 109.285 12.664C108.725 12.3467 108.287 11.9127 107.969 11.362C107.661 10.802 107.507 10.158 107.507 9.43C107.507 8.618 107.666 7.92733 107.983 7.358C108.31 6.77933 108.73 6.34067 109.243 6.042C109.766 5.734 110.317 5.58 110.895 5.58C111.325 5.58 111.74 5.65933 112.141 5.818C112.543 5.97667 112.897 6.21 113.205 6.518C113.513 6.81667 113.761 7.18067 113.947 7.61C114.134 8.03 114.232 8.50133 114.241 9.024C114.241 9.17333 114.185 9.29933 114.073 9.402C113.961 9.50467 113.831 9.556 113.681 9.556H108.151L107.899 8.59H113.289L113.065 8.786V8.478C113.028 8.09533 112.897 7.76867 112.673 7.498C112.459 7.218 112.193 7.00333 111.875 6.854C111.567 6.70467 111.241 6.63 110.895 6.63C110.615 6.63 110.335 6.68133 110.055 6.784C109.785 6.87733 109.537 7.036 109.313 7.26C109.099 7.47467 108.921 7.75467 108.781 8.1C108.651 8.44533 108.585 8.86067 108.585 9.346C108.585 9.88733 108.693 10.3633 108.907 10.774C109.131 11.1847 109.439 11.5113 109.831 11.754C110.223 11.9873 110.681 12.104 111.203 12.104C111.53 12.104 111.815 12.062 112.057 11.978C112.3 11.894 112.51 11.7913 112.687 11.67C112.865 11.5393 113.014 11.4087 113.135 11.278C113.257 11.194 113.373 11.152 113.485 11.152C113.625 11.152 113.737 11.1987 113.821 11.292C113.915 11.3853 113.961 11.4973 113.961 11.628C113.961 11.7867 113.887 11.9267 113.737 12.048C113.476 12.3373 113.121 12.594 112.673 12.818C112.225 13.0327 111.749 13.14 111.245 13.14ZM121.889 5.72C122.047 5.72 122.178 5.776 122.281 5.888C122.393 5.99067 122.449 6.12133 122.449 6.28V15.226C122.449 15.3847 122.393 15.52 122.281 15.632C122.178 15.744 122.047 15.8 121.889 15.8C121.721 15.8 121.585 15.744 121.483 15.632C121.38 15.52 121.329 15.3847 121.329 15.226V11.096L121.595 10.998C121.595 11.222 121.525 11.46 121.385 11.712C121.245 11.9547 121.053 12.1833 120.811 12.398C120.568 12.6127 120.279 12.79 119.943 12.93C119.616 13.07 119.261 13.14 118.879 13.14C118.253 13.14 117.684 12.9767 117.171 12.65C116.667 12.3233 116.265 11.8753 115.967 11.306C115.677 10.7367 115.533 10.088 115.533 9.36C115.533 8.62267 115.677 7.96933 115.967 7.4C116.265 6.83067 116.667 6.38733 117.171 6.07C117.675 5.74333 118.235 5.58 118.851 5.58C119.243 5.58 119.611 5.64533 119.957 5.776C120.302 5.90667 120.601 6.084 120.853 6.308C121.114 6.532 121.319 6.77933 121.469 7.05C121.618 7.32067 121.693 7.59133 121.693 7.862L121.329 7.778V6.28C121.329 6.12133 121.38 5.99067 121.483 5.888C121.585 5.776 121.721 5.72 121.889 5.72ZM119.005 12.104C119.471 12.104 119.882 11.9873 120.237 11.754C120.601 11.5113 120.881 11.1847 121.077 10.774C121.282 10.354 121.385 9.88267 121.385 9.36C121.385 8.828 121.282 8.35667 121.077 7.946C120.881 7.53533 120.601 7.21333 120.237 6.98C119.882 6.73733 119.471 6.616 119.005 6.616C118.547 6.616 118.137 6.73733 117.773 6.98C117.418 7.21333 117.138 7.53533 116.933 7.946C116.727 8.35667 116.625 8.828 116.625 9.36C116.625 9.87333 116.727 10.34 116.933 10.76C117.138 11.1707 117.418 11.4973 117.773 11.74C118.137 11.9827 118.547 12.104 119.005 12.104ZM129.942 5.762C130.11 5.762 130.246 5.818 130.348 5.93C130.451 6.03267 130.502 6.16333 130.502 6.322V10.144C130.502 11.0867 130.236 11.8193 129.704 12.342C129.182 12.8553 128.449 13.112 127.506 13.112C126.573 13.112 125.84 12.8553 125.308 12.342C124.786 11.8193 124.524 11.0867 124.524 10.144V6.322C124.524 6.16333 124.576 6.03267 124.678 5.93C124.79 5.818 124.926 5.762 125.084 5.762C125.252 5.762 125.388 5.818 125.49 5.93C125.593 6.03267 125.644 6.16333 125.644 6.322V10.144C125.644 10.7787 125.808 11.2593 126.134 11.586C126.461 11.9127 126.918 12.076 127.506 12.076C128.113 12.076 128.575 11.9127 128.892 11.586C129.219 11.2593 129.382 10.7787 129.382 10.144V6.322C129.382 6.16333 129.434 6.03267 129.536 5.93C129.648 5.818 129.784 5.762 129.942 5.762ZM132.171 11.852C132.087 11.7307 132.05 11.6047 132.059 11.474C132.068 11.334 132.148 11.2127 132.297 11.11C132.39 11.0447 132.498 11.0167 132.619 11.026C132.75 11.0353 132.866 11.096 132.969 11.208C133.23 11.516 133.529 11.7633 133.865 11.95C134.201 12.1273 134.612 12.216 135.097 12.216C135.321 12.2067 135.545 12.1693 135.769 12.104C135.993 12.0387 136.18 11.9267 136.329 11.768C136.488 11.6 136.567 11.3807 136.567 11.11C136.567 10.8487 136.488 10.6433 136.329 10.494C136.17 10.3353 135.965 10.2093 135.713 10.116C135.461 10.0133 135.186 9.92467 134.887 9.85C134.579 9.766 134.276 9.67267 133.977 9.57C133.678 9.458 133.408 9.32267 133.165 9.164C132.932 8.996 132.74 8.79067 132.591 8.548C132.451 8.296 132.381 7.99267 132.381 7.638C132.381 7.218 132.493 6.854 132.717 6.546C132.95 6.238 133.258 6 133.641 5.832C134.033 5.664 134.458 5.58 134.915 5.58C135.176 5.58 135.447 5.61267 135.727 5.678C136.016 5.734 136.296 5.83667 136.567 5.986C136.838 6.126 137.076 6.322 137.281 6.574C137.365 6.66733 137.412 6.784 137.421 6.924C137.43 7.064 137.37 7.19 137.239 7.302C137.136 7.37667 137.02 7.40933 136.889 7.4C136.768 7.39067 136.665 7.344 136.581 7.26C136.385 7.02667 136.138 6.84933 135.839 6.728C135.55 6.59733 135.228 6.532 134.873 6.532C134.649 6.532 134.43 6.56467 134.215 6.63C134 6.69533 133.818 6.80733 133.669 6.966C133.529 7.11533 133.459 7.32533 133.459 7.596C133.468 7.848 133.552 8.05333 133.711 8.212C133.87 8.37067 134.084 8.50133 134.355 8.604C134.626 8.69733 134.924 8.79067 135.251 8.884C135.55 8.95867 135.834 9.04733 136.105 9.15C136.385 9.24333 136.637 9.36933 136.861 9.528C137.085 9.68667 137.262 9.892 137.393 10.144C137.524 10.3867 137.589 10.6947 137.589 11.068C137.589 11.4973 137.468 11.8707 137.225 12.188C136.982 12.496 136.66 12.734 136.259 12.902C135.867 13.0607 135.442 13.14 134.985 13.14C134.472 13.14 133.963 13.042 133.459 12.846C132.964 12.65 132.535 12.3187 132.171 11.852ZM138.928 5.804H142.218C142.367 5.804 142.489 5.85533 142.582 5.958C142.685 6.06067 142.736 6.182 142.736 6.322C142.736 6.47133 142.685 6.59733 142.582 6.7C142.489 6.79333 142.367 6.84 142.218 6.84H138.928C138.788 6.84 138.667 6.78867 138.564 6.686C138.461 6.58333 138.41 6.45733 138.41 6.308C138.41 6.168 138.461 6.05133 138.564 5.958C138.667 5.85533 138.788 5.804 138.928 5.804ZM140.398 3.9C140.557 3.9 140.687 3.956 140.79 4.068C140.893 4.17067 140.944 4.30133 140.944 4.46V11.222C140.944 11.446 140.977 11.614 141.042 11.726C141.107 11.838 141.191 11.9173 141.294 11.964C141.406 12.0013 141.513 12.02 141.616 12.02C141.709 12.02 141.789 12.006 141.854 11.978C141.929 11.9407 142.013 11.922 142.106 11.922C142.199 11.922 142.283 11.9687 142.358 12.062C142.442 12.146 142.484 12.258 142.484 12.398C142.484 12.566 142.386 12.7107 142.19 12.832C141.994 12.944 141.775 13 141.532 13C141.401 13 141.238 12.9907 141.042 12.972C140.855 12.9533 140.669 12.8927 140.482 12.79C140.295 12.6873 140.137 12.5193 140.006 12.286C139.885 12.0433 139.824 11.7073 139.824 11.278V4.46C139.824 4.30133 139.88 4.17067 139.992 4.068C140.104 3.956 140.239 3.9 140.398 3.9ZM151.733 4.656L148.443 12.664C148.406 12.776 148.341 12.8647 148.247 12.93C148.154 12.9953 148.056 13.028 147.953 13.028C147.776 13.028 147.645 12.9813 147.561 12.888C147.477 12.7947 147.435 12.6827 147.435 12.552C147.426 12.4867 147.435 12.4167 147.463 12.342L151.089 3.522C151.136 3.39133 151.206 3.298 151.299 3.242C151.402 3.17667 151.514 3.14867 151.635 3.158C151.757 3.158 151.864 3.19067 151.957 3.256C152.06 3.32133 152.13 3.41 152.167 3.522L155.779 12.258C155.807 12.3327 155.821 12.4073 155.821 12.482C155.821 12.65 155.765 12.7853 155.653 12.888C155.541 12.9813 155.415 13.028 155.275 13.028C155.163 13.028 155.061 12.9953 154.967 12.93C154.874 12.8647 154.804 12.7713 154.757 12.65L151.425 4.642L151.733 4.656ZM149.143 10.382L149.619 9.29H153.777L153.987 10.382H149.143ZM165.271 3.2C165.952 3.2 166.549 3.33067 167.063 3.592C167.585 3.844 168.019 4.19867 168.365 4.656C168.71 5.11333 168.967 5.64067 169.135 6.238C169.312 6.826 169.401 7.44667 169.401 8.1C169.401 8.996 169.247 9.81733 168.939 10.564C168.631 11.3013 168.173 11.894 167.567 12.342C166.96 12.7807 166.195 13 165.271 13H161.771C161.612 13 161.477 12.944 161.365 12.832C161.262 12.72 161.211 12.5847 161.211 12.426V3.76C161.211 3.60133 161.262 3.47067 161.365 3.368C161.477 3.256 161.612 3.2 161.771 3.2H165.271ZM165.131 11.908C165.849 11.908 166.433 11.7353 166.881 11.39C167.338 11.0447 167.669 10.5827 167.875 10.004C168.089 9.42533 168.197 8.79067 168.197 8.1C168.197 7.596 168.136 7.11533 168.015 6.658C167.903 6.19133 167.721 5.78067 167.469 5.426C167.226 5.07133 166.909 4.79133 166.517 4.586C166.134 4.38067 165.672 4.278 165.131 4.278H162.261L162.373 4.166V12.048L162.289 11.908H165.131ZM174.519 13.14C173.772 13.14 173.119 12.9813 172.559 12.664C171.999 12.3467 171.56 11.9127 171.243 11.362C170.935 10.802 170.781 10.158 170.781 9.43C170.781 8.618 170.939 7.92733 171.257 7.358C171.583 6.77933 172.003 6.34067 172.517 6.042C173.039 5.734 173.59 5.58 174.169 5.58C174.598 5.58 175.013 5.65933 175.415 5.818C175.816 5.97667 176.171 6.21 176.479 6.518C176.787 6.81667 177.034 7.18067 177.221 7.61C177.407 8.03 177.505 8.50133 177.515 9.024C177.515 9.17333 177.459 9.29933 177.347 9.402C177.235 9.50467 177.104 9.556 176.955 9.556H171.425L171.173 8.59H176.563L176.339 8.786V8.478C176.301 8.09533 176.171 7.76867 175.947 7.498C175.732 7.218 175.466 7.00333 175.149 6.854C174.841 6.70467 174.514 6.63 174.169 6.63C173.889 6.63 173.609 6.68133 173.329 6.784C173.058 6.87733 172.811 7.036 172.587 7.26C172.372 7.47467 172.195 7.75467 172.055 8.1C171.924 8.44533 171.859 8.86067 171.859 9.346C171.859 9.88733 171.966 10.3633 172.181 10.774C172.405 11.1847 172.713 11.5113 173.105 11.754C173.497 11.9873 173.954 12.104 174.477 12.104C174.803 12.104 175.088 12.062 175.331 11.978C175.573 11.894 175.783 11.7913 175.961 11.67C176.138 11.5393 176.287 11.4087 176.409 11.278C176.53 11.194 176.647 11.152 176.759 11.152C176.899 11.152 177.011 11.1987 177.095 11.292C177.188 11.3853 177.235 11.4973 177.235 11.628C177.235 11.7867 177.16 11.9267 177.011 12.048C176.749 12.3373 176.395 12.594 175.947 12.818C175.499 13.0327 175.023 13.14 174.519 13.14ZM182.656 5.65C183.291 5.65 183.804 5.81333 184.196 6.14C184.597 6.45733 184.863 6.91 184.994 7.498H184.784L184.882 7.246C184.994 6.98467 185.185 6.73267 185.456 6.49C185.727 6.24733 186.039 6.04667 186.394 5.888C186.749 5.72933 187.117 5.65 187.5 5.65C188.116 5.65 188.601 5.78533 188.956 6.056C189.311 6.31733 189.563 6.672 189.712 7.12C189.871 7.55867 189.95 8.05333 189.95 8.604V12.426C189.95 12.5847 189.894 12.72 189.782 12.832C189.679 12.944 189.549 13 189.39 13C189.222 13 189.087 12.944 188.984 12.832C188.881 12.72 188.83 12.5847 188.83 12.426V8.632C188.83 8.268 188.774 7.94133 188.662 7.652C188.559 7.35333 188.387 7.12 188.144 6.952C187.911 6.77467 187.589 6.686 187.178 6.686C186.795 6.686 186.445 6.77467 186.128 6.952C185.811 7.12 185.559 7.35333 185.372 7.652C185.185 7.94133 185.092 8.268 185.092 8.632V12.426C185.092 12.5847 185.041 12.72 184.938 12.832C184.835 12.944 184.7 13 184.532 13C184.373 13 184.238 12.944 184.126 12.832C184.023 12.72 183.972 12.5847 183.972 12.426V8.59C183.972 8.23533 183.921 7.918 183.818 7.638C183.725 7.34867 183.561 7.12 183.328 6.952C183.095 6.77467 182.773 6.686 182.362 6.686C181.989 6.686 181.648 6.77467 181.34 6.952C181.032 7.12 180.785 7.34867 180.598 7.638C180.411 7.918 180.318 8.23533 180.318 8.59V12.426C180.318 12.5847 180.262 12.72 180.15 12.832C180.047 12.944 179.917 13 179.758 13C179.599 13 179.464 12.944 179.352 12.832C179.249 12.72 179.198 12.5847 179.198 12.426V6.322C179.198 6.16333 179.249 6.03267 179.352 5.93C179.464 5.818 179.599 5.762 179.758 5.762C179.926 5.762 180.061 5.818 180.164 5.93C180.267 6.03267 180.318 6.16333 180.318 6.322V7.386L180.01 7.722C180.047 7.47933 180.141 7.23667 180.29 6.994C180.449 6.75133 180.649 6.52733 180.892 6.322C181.135 6.11667 181.405 5.95333 181.704 5.832C182.003 5.71067 182.32 5.65 182.656 5.65ZM198.896 9.36C198.896 10.088 198.733 10.7367 198.406 11.306C198.089 11.8753 197.655 12.3233 197.104 12.65C196.563 12.9767 195.952 13.14 195.27 13.14C194.589 13.14 193.973 12.9767 193.422 12.65C192.872 12.3233 192.433 11.8753 192.106 11.306C191.789 10.7367 191.63 10.088 191.63 9.36C191.63 8.632 191.789 7.98333 192.106 7.414C192.433 6.84467 192.872 6.39667 193.422 6.07C193.973 5.74333 194.589 5.58 195.27 5.58C195.952 5.58 196.563 5.74333 197.104 6.07C197.655 6.39667 198.089 6.84467 198.406 7.414C198.733 7.98333 198.896 8.632 198.896 9.36ZM197.776 9.36C197.776 8.81867 197.664 8.34267 197.44 7.932C197.226 7.52133 196.927 7.19933 196.544 6.966C196.171 6.73267 195.746 6.616 195.27 6.616C194.794 6.616 194.365 6.73267 193.982 6.966C193.609 7.19933 193.31 7.52133 193.086 7.932C192.862 8.34267 192.75 8.81867 192.75 9.36C192.75 9.892 192.862 10.3633 193.086 10.774C193.31 11.1847 193.609 11.5113 193.982 11.754C194.365 11.9873 194.794 12.104 195.27 12.104C195.746 12.104 196.171 11.9873 196.544 11.754C196.927 11.5113 197.226 11.1847 197.44 10.774C197.664 10.3633 197.776 9.892 197.776 9.36Z" fill="#6606EF"/>
<path d="M208.53 3.46967C208.237 3.17678 207.763 3.17678 207.47 3.46967C207.177 3.76256 207.177 4.23744 207.47 4.53033L208.53 3.46967ZM212 8L212.53 8.53033C212.823 8.23744 212.823 7.76256 212.53 7.46967L212 8ZM207.47 11.4697C207.177 11.7626 207.177 12.2374 207.47 12.5303C207.763 12.8232 208.237 12.8232 208.53 12.5303L207.47 11.4697ZM207.47 4.53033L211.47 8.53033L212.53 7.46967L208.53 3.46967L207.47 4.53033ZM211.47 7.46967L207.47 11.4697L208.53 12.5303L212.53 8.53033L211.47 7.46967Z" fill="#6606EF"/>
</svg>
