<svg width="69" height="70" viewBox="0 0 69 70" fill="none" xmlns="http://www.w3.org/2000/svg">
<path d="M0 34.5029C0 15.4491 15.4462 0.00292969 34.5 0.00292969C53.5538 0.00292969 69 15.4491 69 34.5029C69 53.5568 53.5538 69.0029 34.5 69.0029C15.4462 69.0029 0 53.5568 0 34.5029Z" fill="white"/>
<path d="M31.7097 36.8801C25.3469 36.8801 20.1889 40.3188 20.1889 44.5606H43.2304C43.2304 40.3188 38.0724 36.8801 31.7097 36.8801Z" fill="#6606EF" fill-opacity="0.5"/>
<path d="M31.7102 32.8478C35.952 32.8478 39.3907 29.4091 39.3907 25.1673C39.3907 20.9255 35.952 17.4868 31.7102 17.4868C27.4684 17.4868 24.0297 20.9255 24.0297 25.1673C24.0297 29.4091 27.4684 32.8478 31.7102 32.8478Z" fill="#6606EF" fill-opacity="0.5"/>
<path d="M52.9444 35.7888H36.0555C35.4726 35.7888 35 36.2445 35 36.8067V46.9852C35 47.5474 35.4726 48.0031 36.0555 48.0031H52.9444C53.5274 48.0031 54 47.5474 54 46.9852V36.8067C54 36.2445 53.5274 35.7888 52.9444 35.7888Z" fill="#6606EF"/>
<path d="M41 37.0744C41 34.8258 42.8228 33.0029 45.0714 33.0029C47.32 33.0029 49.1428 34.8258 49.1428 37.0744" stroke="#6606EF" stroke-width="1.16216" stroke-linecap="round" stroke-linejoin="round"/>
<path d="M42 42.0029L48 42.0029" stroke="white" stroke-width="1.16" stroke-linecap="round" stroke-linejoin="round"/>
<path d="M45 39.0029L45 45.0029" stroke="white" stroke-width="1.16" stroke-linecap="round" stroke-linejoin="round"/>
</svg>
