<svg width="73" height="73" viewBox="0 0 73 73" fill="none" xmlns="http://www.w3.org/2000/svg">
<rect x="0.48877" y="0.556641" width="72" height="72" rx="36" fill="#FF9408"/>
<path opacity="0.3" d="M55.4888 42.2233V22.2233C55.4888 21.3028 54.7426 20.5566 53.8221 20.5566H27.1554C26.235 20.5566 25.4888 21.3028 25.4888 22.2233V24.4455V43.89H45.4888H53.8221C54.7426 43.89 55.4888 43.1438 55.4888 42.2233Z" fill="white"/>
<path d="M49.4888 48.2233V28.2233C49.4888 27.3028 48.7426 26.5566 47.8221 26.5566H21.1554C20.235 26.5566 19.4888 27.3028 19.4888 28.2233V30.4455V49.89H39.4888H47.8221C48.7426 49.89 49.4888 49.1438 49.4888 48.2233Z" fill="white"/>
<path d="M19.4888 46.5566C21.3297 46.5566 22.8221 48.049 22.8221 49.89" stroke="#FA7355" stroke-width="2.5" stroke-linecap="round" stroke-linejoin="round"/>
<path d="M19.4888 41.5566C24.0911 41.5566 27.8221 45.2876 27.8221 49.89" stroke="#FA7355" stroke-width="2.5" stroke-linecap="round" stroke-linejoin="round"/>
<path d="M19.4888 36.5566C26.8526 36.5566 32.8221 42.5262 32.8221 49.89" stroke="#FA7355" stroke-width="2.5" stroke-linecap="round" stroke-linejoin="round"/>
</svg>
